<?xml version="1.0" encoding="UTF-8"?>
<svg xmlns="http://www.w3.org/2000/svg" xmlns:xlink="http://www.w3.org/1999/xlink" width="100pt" height="100pt" viewBox="0 0 100 100" version="1.1">
<g id="surface1">
<path style=" stroke:none;fill-rule:evenodd;fill:rgb(97.647059%,96.862745%,96.078431%);fill-opacity:1;" d="M 57.839844 69.175781 C 67.582031 68.023438 77.945312 64.480469 77.945312 47.652344 C 77.945312 42.867188 76.261719 38.972656 73.515625 35.960938 C 73.960938 34.808594 75.375 30.46875 72.984375 24.445312 C 72.984375 24.445312 69.4375 23.292969 61.117188 28.875 C 57.574219 27.898438 53.675781 27.28125 50.042969 27.28125 C 46.324219 27.28125 42.425781 27.898438 38.972656 28.875 C 30.554688 23.292969 27.015625 24.445312 27.015625 24.445312 C 24.625 30.46875 26.039062 34.808594 26.484375 35.960938 C 23.738281 38.972656 22.054688 42.867188 22.054688 47.652344 C 22.054688 64.480469 32.417969 68.023438 42.160156 69.175781 C 40.921875 70.238281 39.769531 72.277344 39.328125 75.109375 C 36.84375 76.171875 30.382812 78.210938 26.484375 71.480469 C 26.484375 71.480469 24.179688 67.316406 19.839844 67.050781 C 19.839844 67.050781 15.5 66.964844 19.488281 69.703125 C 19.488281 69.703125 22.40625 71.035156 24.359375 76.085938 C 24.359375 76.085938 27.015625 84.5 39.234375 81.839844 L 39.234375 89.371094 C 39.234375 90.523438 38.351562 91.851562 36.136719 91.496094 C 18.777344 85.738281 6.289062 69.261719 6.289062 49.957031 C 6.289062 25.773438 25.863281 6.199219 50.042969 6.199219 C 74.136719 6.199219 93.796875 25.773438 93.710938 49.957031 C 93.710938 69.261719 81.21875 85.648438 63.863281 91.496094 C 61.648438 91.9375 60.761719 90.609375 60.761719 89.371094 L 60.761719 77.234375 C 60.761719 73.160156 59.429688 70.503906 57.839844 69.175781 Z M 100 50.042969 C 100 22.40625 77.589844 0 50.042969 0 C 22.40625 0 0 22.40625 0 50.042969 C 0 77.589844 22.40625 100 50.042969 100 C 77.589844 100 100 77.589844 100 50.042969 Z M 100 50.042969 "/>
</g>
</svg>
