<?xml version="1.0" encoding="UTF-8"?>
<svg xmlns="http://www.w3.org/2000/svg" xmlns:xlink="http://www.w3.org/1999/xlink" width="12pt" height="12pt" viewBox="0 0 12 12" version="1.1">
<g id="surface1">
<path style=" stroke:none;fill-rule:nonzero;fill:rgb(97.647059%,96.862745%,96.078431%);fill-opacity:1;" d="M 5.847656 3.460938 C 4.398438 3.460938 3.195312 4.648438 3.195312 6.117188 C 3.195312 7.589844 4.375 8.769531 5.847656 8.769531 C 7.320312 8.769531 8.503906 7.570312 8.503906 6.117188 C 8.503906 4.667969 7.300781 3.460938 5.847656 3.460938 Z M 5.847656 7.820312 C 4.914062 7.820312 4.148438 7.050781 4.148438 6.117188 C 4.148438 5.183594 4.914062 4.417969 5.847656 4.417969 C 6.78125 4.417969 7.546875 5.183594 7.546875 6.117188 C 7.546875 7.050781 6.78125 7.820312 5.847656 7.820312 Z M 5.847656 7.820312 "/>
<path style=" stroke:none;fill-rule:nonzero;fill:rgb(97.647059%,96.862745%,96.078431%);fill-opacity:1;" d="M 9.207031 3.402344 C 9.207031 3.734375 8.9375 4.003906 8.605469 4.003906 C 8.273438 4.003906 8.003906 3.734375 8.003906 3.402344 C 8.003906 3.066406 8.273438 2.800781 8.605469 2.800781 C 8.9375 2.800781 9.207031 3.066406 9.207031 3.402344 Z M 9.207031 3.402344 "/>
<path style=" stroke:none;fill-rule:nonzero;fill:rgb(97.647059%,96.862745%,96.078431%);fill-opacity:1;" d="M 10.164062 1.84375 C 9.621094 1.285156 8.855469 0.996094 7.984375 0.996094 L 3.710938 0.996094 C 1.90625 0.996094 0.707031 2.199219 0.707031 4.003906 L 0.707031 8.253906 C 0.707031 9.144531 0.996094 9.914062 1.578125 10.472656 C 2.136719 11.011719 2.882812 11.28125 3.730469 11.28125 L 7.964844 11.28125 C 8.855469 11.28125 9.601562 10.988281 10.140625 10.472656 C 10.703125 9.933594 10.988281 9.167969 10.988281 8.273438 L 10.988281 4.003906 C 10.988281 3.132812 10.703125 2.382812 10.164062 1.84375 Z M 10.039062 8.273438 C 10.039062 8.917969 9.851562 9.4375 9.476562 9.789062 C 9.105469 10.140625 8.585938 10.328125 7.964844 10.328125 L 3.730469 10.328125 C 3.109375 10.328125 2.59375 10.140625 2.21875 9.789062 C 1.84375 9.414062 1.660156 8.894531 1.660156 8.253906 L 1.660156 4.003906 C 1.660156 3.378906 1.84375 2.859375 2.21875 2.488281 C 2.570312 2.136719 3.109375 1.949219 3.730469 1.949219 L 8.003906 1.949219 C 8.625 1.949219 9.144531 2.136719 9.519531 2.507812 C 9.871094 2.882812 10.078125 3.402344 10.078125 4.003906 L 10.078125 8.273438 Z M 10.039062 8.273438 "/>
</g>
</svg>
