<?xml version="1.0" encoding="UTF-8"?>
<svg xmlns="http://www.w3.org/2000/svg" xmlns:xlink="http://www.w3.org/1999/xlink" width="12pt" height="12pt" viewBox="0 0 12 12" version="1.1">
<g id="surface1">
<path style=" stroke:none;fill-rule:nonzero;fill:rgb(97.647059%,96.862745%,96.078431%);fill-opacity:1;" d="M 6.296875 0.957031 C 3.484375 0.957031 2.0625 2.976562 2.0625 4.664062 C 2.0625 5.683594 2.449219 6.589844 3.277344 6.925781 C 3.410156 6.984375 3.535156 6.933594 3.570312 6.777344 C 3.601562 6.675781 3.664062 6.414062 3.691406 6.300781 C 3.730469 6.15625 3.71875 6.105469 3.605469 5.972656 C 3.367188 5.691406 3.214844 5.328125 3.214844 4.808594 C 3.214844 3.3125 4.335938 1.972656 6.136719 1.972656 C 7.730469 1.972656 8.601562 2.945312 8.601562 4.246094 C 8.601562 5.953125 7.847656 7.394531 6.722656 7.394531 C 6.105469 7.394531 5.636719 6.882812 5.789062 6.253906 C 5.964844 5.503906 6.308594 4.691406 6.308594 4.148438 C 6.308594 3.664062 6.050781 3.257812 5.511719 3.257812 C 4.875 3.257812 4.367188 3.914062 4.367188 4.792969 C 4.367188 5.351562 4.558594 5.730469 4.558594 5.730469 C 4.558594 5.730469 3.90625 8.480469 3.792969 8.964844 C 3.566406 9.921875 3.761719 11.097656 3.777344 11.21875 C 3.785156 11.289062 3.875 11.304688 3.914062 11.25 C 3.976562 11.171875 4.730469 10.242188 4.984375 9.3125 C 5.058594 9.046875 5.402344 7.679688 5.402344 7.679688 C 5.609375 8.074219 6.214844 8.417969 6.851562 8.417969 C 8.757812 8.417969 10.050781 6.683594 10.050781 4.355469 C 10.050781 2.597656 8.5625 0.957031 6.296875 0.957031 Z M 6.296875 0.957031 "/>
</g>
</svg>
