<?xml version="1.0" encoding="UTF-8"?>
<svg xmlns="http://www.w3.org/2000/svg" xmlns:xlink="http://www.w3.org/1999/xlink" width="12pt" height="12pt" viewBox="0 0 12 12" version="1.1">
<g id="surface1">
<path style=" stroke:none;fill-rule:nonzero;fill:rgb(97.647059%,96.862745%,96.078431%);fill-opacity:1;" d="M 1.261719 7.511719 C 1.28125 7.511719 1.300781 7.492188 1.300781 7.46875 L 1.417969 6.570312 L 1.300781 5.652344 C 1.300781 5.628906 1.28125 5.613281 1.261719 5.613281 C 1.238281 5.613281 1.21875 5.628906 1.21875 5.652344 C 1.21875 5.652344 1.117188 6.570312 1.117188 6.570312 L 1.21875 7.46875 C 1.21875 7.492188 1.238281 7.511719 1.261719 7.511719 Z M 0.921875 7.128906 Z M 0.882812 7.167969 C 0.902344 7.167969 0.917969 7.152344 0.921875 7.128906 L 1.015625 6.570312 L 0.921875 6.003906 C 0.917969 5.980469 0.902344 5.964844 0.882812 5.964844 C 0.859375 5.964844 0.84375 5.980469 0.84375 6.003906 L 0.765625 6.570312 L 0.84375 7.128906 C 0.84375 7.152344 0.859375 7.167969 0.882812 7.167969 Z M 1.710938 5.480469 C 1.710938 5.453125 1.6875 5.429688 1.660156 5.429688 C 1.636719 5.429688 1.613281 5.453125 1.609375 5.480469 C 1.609375 5.480469 1.515625 6.570312 1.515625 6.570312 L 1.609375 7.621094 C 1.613281 7.648438 1.636719 7.671875 1.660156 7.671875 C 1.6875 7.671875 1.710938 7.648438 1.710938 7.621094 L 1.820312 6.570312 Z M 2.066406 7.714844 C 2.097656 7.714844 2.125 7.6875 2.128906 7.652344 L 2.230469 6.570312 L 2.128906 5.453125 C 2.125 5.417969 2.097656 5.394531 2.066406 5.394531 C 2.035156 5.394531 2.011719 5.417969 2.007812 5.453125 L 1.914062 6.570312 L 2.007812 7.652344 C 2.011719 7.6875 2.035156 7.714844 2.066406 7.714844 Z M 2.476562 7.730469 C 2.511719 7.730469 2.542969 7.703125 2.546875 7.664062 L 2.640625 6.570312 L 2.546875 5.535156 C 2.542969 5.496094 2.511719 5.464844 2.476562 5.464844 C 2.441406 5.464844 2.410156 5.496094 2.40625 5.535156 L 2.320312 6.570312 L 2.40625 7.664062 C 2.410156 7.703125 2.4375 7.730469 2.476562 7.730469 Z M 3.054688 6.570312 L 2.964844 4.882812 C 2.960938 4.839844 2.925781 4.804688 2.886719 4.804688 C 2.84375 4.804688 2.8125 4.839844 2.808594 4.882812 L 2.726562 6.570312 L 2.808594 7.664062 C 2.8125 7.707031 2.84375 7.738281 2.886719 7.738281 C 2.925781 7.738281 2.960938 7.707031 2.964844 7.664062 Z M 3.300781 7.742188 C 3.347656 7.742188 3.386719 7.703125 3.386719 7.65625 L 3.472656 6.574219 L 3.386719 4.496094 C 3.386719 4.449219 3.347656 4.414062 3.300781 4.414062 C 3.253906 4.414062 3.21875 4.449219 3.214844 4.496094 L 3.140625 6.574219 L 3.214844 7.65625 C 3.21875 7.703125 3.253906 7.742188 3.300781 7.742188 Z M 3.71875 4.230469 C 3.667969 4.230469 3.628906 4.269531 3.625 4.324219 L 3.554688 6.574219 L 3.625 7.644531 C 3.628906 7.699219 3.667969 7.738281 3.71875 7.738281 C 3.769531 7.738281 3.8125 7.699219 3.816406 7.644531 L 3.894531 6.574219 L 3.816406 4.324219 C 3.8125 4.269531 3.769531 4.230469 3.71875 4.230469 Z M 4.140625 7.742188 C 4.195312 7.742188 4.246094 7.695312 4.246094 7.640625 L 4.316406 6.574219 L 4.246094 4.246094 C 4.246094 4.191406 4.195312 4.144531 4.140625 4.144531 C 4.082031 4.144531 4.039062 4.191406 4.039062 4.246094 L 3.972656 6.574219 L 4.039062 7.640625 C 4.039062 7.695312 4.082031 7.742188 4.140625 7.742188 Z M 4.566406 7.742188 C 4.625 7.742188 4.675781 7.691406 4.675781 7.628906 L 4.742188 6.574219 L 4.675781 4.308594 C 4.675781 4.246094 4.625 4.195312 4.566406 4.195312 C 4.503906 4.195312 4.457031 4.246094 4.453125 4.308594 L 4.394531 6.574219 L 4.453125 7.628906 C 4.457031 7.691406 4.503906 7.742188 4.566406 7.742188 Z M 5.175781 6.574219 L 5.113281 4.390625 C 5.113281 4.324219 5.058594 4.269531 4.992188 4.269531 C 4.925781 4.269531 4.875 4.324219 4.871094 4.390625 L 4.816406 6.574219 L 4.871094 7.621094 C 4.875 7.6875 4.925781 7.742188 4.992188 7.742188 C 5.058594 7.742188 5.113281 7.6875 5.113281 7.621094 Z M 5.421875 7.746094 C 5.496094 7.746094 5.554688 7.6875 5.554688 7.613281 L 5.554688 7.617188 L 5.609375 6.574219 L 5.554688 3.976562 C 5.554688 3.902344 5.496094 3.847656 5.421875 3.847656 C 5.355469 3.847656 5.296875 3.902344 5.296875 3.976562 L 5.246094 6.574219 C 5.246094 6.574219 5.296875 7.613281 5.296875 7.613281 C 5.296875 7.6875 5.355469 7.746094 5.421875 7.746094 Z M 5.855469 3.601562 C 5.777344 3.601562 5.714844 3.664062 5.714844 3.742188 L 5.65625 6.574219 L 5.714844 7.601562 C 5.714844 7.675781 5.777344 7.738281 5.855469 7.738281 C 5.929688 7.738281 5.992188 7.675781 5.992188 7.601562 L 6.054688 6.574219 L 5.992188 3.738281 C 5.992188 3.664062 5.929688 3.601562 5.855469 3.601562 Z M 6.246094 7.746094 C 6.25 7.746094 9.707031 7.746094 9.734375 7.746094 C 10.425781 7.746094 10.988281 7.183594 10.988281 6.488281 C 10.988281 5.796875 10.425781 5.234375 9.734375 5.234375 C 9.558594 5.234375 9.394531 5.265625 9.246094 5.328125 C 9.144531 4.195312 8.199219 3.308594 7.035156 3.308594 C 6.753906 3.308594 6.476562 3.367188 6.230469 3.457031 C 6.136719 3.496094 6.113281 3.535156 6.113281 3.605469 L 6.113281 7.597656 C 6.113281 7.671875 6.171875 7.738281 6.246094 7.746094 Z M 6.246094 7.746094 "/>
</g>
</svg>
