<?xml version="1.0" encoding="UTF-8"?>
<svg xmlns="http://www.w3.org/2000/svg" xmlns:xlink="http://www.w3.org/1999/xlink" width="12pt" height="12pt" viewBox="0 0 12 12" version="1.1">
<g id="surface1">
<path style=" stroke:none;fill-rule:nonzero;fill:rgb(97.647059%,96.862745%,96.078431%);fill-opacity:1;" d="M 11.214844 3.226562 C 10.839844 3.390625 10.433594 3.503906 10.011719 3.554688 C 10.445312 3.296875 10.777344 2.882812 10.933594 2.394531 C 10.527344 2.632812 10.082031 2.808594 9.601562 2.902344 C 9.21875 2.496094 8.675781 2.242188 8.074219 2.242188 C 6.914062 2.242188 5.976562 3.179688 5.976562 4.335938 C 5.976562 4.5 5.996094 4.660156 6.03125 4.816406 C 4.289062 4.726562 2.746094 3.894531 1.710938 2.625 C 1.53125 2.933594 1.425781 3.292969 1.425781 3.679688 C 1.425781 4.40625 1.796875 5.046875 2.359375 5.421875 C 2.015625 5.414062 1.691406 5.316406 1.410156 5.160156 C 1.410156 5.167969 1.410156 5.179688 1.410156 5.1875 C 1.410156 6.203125 2.132812 7.050781 3.089844 7.242188 C 2.914062 7.292969 2.730469 7.316406 2.539062 7.316406 C 2.40625 7.316406 2.273438 7.304688 2.144531 7.28125 C 2.410156 8.113281 3.1875 8.71875 4.101562 8.734375 C 3.386719 9.296875 2.480469 9.632812 1.5 9.632812 C 1.328125 9.632812 1.164062 9.621094 1 9.601562 C 1.925781 10.199219 3.027344 10.542969 4.214844 10.542969 C 8.066406 10.542969 10.175781 7.351562 10.175781 4.582031 C 10.175781 4.488281 10.175781 4.398438 10.167969 4.308594 C 10.578125 4.015625 10.933594 3.644531 11.214844 3.226562 Z M 11.214844 3.226562 "/>
</g>
</svg>
