<?xml version="1.0" encoding="UTF-8"?>
<svg xmlns="http://www.w3.org/2000/svg" xmlns:xlink="http://www.w3.org/1999/xlink" width="12pt" height="12pt" viewBox="0 0 12 12" version="1.1">
<g id="surface1">
<path style=" stroke:none;fill-rule:nonzero;fill:rgb(97.647059%,96.862745%,96.078431%);fill-opacity:1;" d="M 0.746094 4.765625 L 1.164062 5.3125 C 1.164062 5.3125 2.023438 4.632812 2.3125 4.972656 C 2.597656 5.3125 3.691406 9.402344 4.054688 10.15625 C 4.375 10.816406 5.253906 11.691406 6.21875 11.066406 C 7.179688 10.441406 10.386719 7.707031 10.960938 4.476562 C 11.53125 1.246094 7.101562 1.921875 6.632812 4.734375 C 7.804688 4.03125 8.433594 5.023438 7.832031 6.144531 C 7.234375 7.261719 6.6875 7.996094 6.398438 7.996094 C 6.113281 7.996094 5.894531 7.246094 5.566406 5.9375 C 5.226562 4.582031 5.226562 2.140625 3.820312 2.417969 C 2.492188 2.679688 0.746094 4.765625 0.746094 4.765625 Z M 0.746094 4.765625 "/>
</g>
</svg>
